<?xml version="1.0" encoding="utf-8"?>
<!-- Generator: Adobe Illustrator 24.0.1, SVG Export Plug-In . SVG Version: 6.00 Build 0)  -->
<svg version="1.1" id="圖層_1" xmlns="http://www.w3.org/2000/svg" xmlns:xlink="http://www.w3.org/1999/xlink" x="0px" y="0px"
	 viewBox="0 0 200 200" style="enable-background:new 0 0 200 200;" xml:space="preserve">
<style type="text/css">
	.st0{fill:none;}
	.st1{fill:#F5E169;}
	.st2{fill:#F8B26A;}
</style>
<path class="st0" d="z"/>
<path class="st1" d="M132,95c-0.8-1-10.2,0-11.4,0H45.8c-3.6,0-9.8,1.2-13,0c1.6-5,6.8-7.8,11.4-10c13-6.2,26.6-11.4,40.6-15.2
	c20-5.6,32.2,4,45,22.2L132,95L132,95z"/>
<path class="st1" d="M178.8,108.2c-4.6-7-11.8-12.4-19.6-15.2c-2.4-0.8-5-1.6-7.6-1.8c-23.6-1.2-47.8,0-71.4,0h-46
	c-6,0-11.2,4.4-12.2,10.2c0,0.2-0.2,0.4-0.2,0.6l-1,7.6l-1.6,6.8c0,4.4,3.6,8,8,8h98.2c11.2,0,22.4,0.4,33.6,0c1.2,0,2.4,0,3.6-0.2
	c2.2,0,4.4-0.2,6.4-0.2c4.2-0.2,13-0.2,13.6-6c0.2-1.8-0.4-3.6-1.2-5.2S179.8,109.6,178.8,108.2z"/>
<path class="st2" d="M180.6,115.6H19.2c0,0-0.8,0-0.8,0.8c0,4.8,3.4,8,8.2,8h154c2.4,0,4.4-2,4.4-4.4S183,115.6,180.6,115.6z"/>
<path class="st1" d="M34,86l-14.4-1.4c-2.2-0.2-4-2-4.2-4.4l-0.2-3c-0.2-2,1.8-3.6,3.8-3l20.4,6.6C39.4,83.8,36.8,86.2,34,86z"/>
<path class="st1" d="M37.4,92.4l-5.8,5l-9.8-16.2l3.8-3.2L37.4,92.4z"/>
<path class="st0" d="z"/>
</svg>
