<?xml version="1.0" encoding="utf-8"?>
<!-- Generator: Adobe Illustrator 24.0.1, SVG Export Plug-In . SVG Version: 6.00 Build 0)  -->
<svg version="1.1" id="圖層_1" xmlns="http://www.w3.org/2000/svg" xmlns:xlink="http://www.w3.org/1999/xlink" x="0px" y="0px"
	 viewBox="0 0 200 200" style="enable-background:new 0 0 200 200;" xml:space="preserve">
<style type="text/css">
	.st0{fill:none;}
	.st1{fill:#00D6EC;}
</style>
<path class="st0" d="z"/>
<g>
	<path class="st1" d="M80.2,91.2c14.3,0,28.7-0.4,43.2-0.5C112.6,76,102.2,68.4,85.4,73c-3,0.8-6,1.8-9,2.8c-1.8,0.6-3,2.2-3,4
		l-0.6,10.4c0,0.3,0,0.7,0,1H80.2z"/>
	<path class="st1" d="M69.1,91.2l0.7-10.6c0-1.4-1.2-2.2-2.4-1.8c-6,2.4-11.8,4.8-17.4,7.6c-2.6,1.3-5.5,2.8-7.6,4.8H69.1z"/>
</g>
<path class="st0" d="z"/>
</svg>
