<?xml version="1.0" encoding="utf-8"?>
<!-- Generator: Adobe Illustrator 24.0.1, SVG Export Plug-In . SVG Version: 6.00 Build 0)  -->
<svg version="1.1" id="圖層_1" xmlns="http://www.w3.org/2000/svg" xmlns:xlink="http://www.w3.org/1999/xlink" x="0px" y="0px"
	 viewBox="0 0 200 200" style="enable-background:new 0 0 200 200;" xml:space="preserve">
<style type="text/css">
	.st0{fill:none;}
	.st1{fill:#E15B64;}
	.st2{fill:#E0E0E0;}
</style>
<path class="st0" d="z"/>
<path class="st1" d="M28.4,101.4H22c-0.4,0-0.6,0.2-0.6,0.6l-0.8,6.6c0,0.4,0.2,1,0.6,1h7.2c1.8,0,3.2-1.6,3.2-3.6v-1
	C31.4,103,30,101.4,28.4,101.4z"/>
<path class="st2" d="M175.8,102c-0.4-0.4-1-0.8-1.6-0.8h-6c-1.6,0-2.8,1-2.8,2.2v3c0,1.6,1.6,3.2,3.6,3.2h10c1.2,0,1.4-1,0.8-2
	C179.8,107.6,175.8,102,175.8,102z"/>
<path class="st0" d="z"/>
</svg>
