<?xml version="1.0" encoding="utf-8"?>
<!-- Generator: Adobe Illustrator 24.0.1, SVG Export Plug-In . SVG Version: 6.00 Build 0)  -->
<svg version="1.1" id="圖層_1" xmlns="http://www.w3.org/2000/svg" xmlns:xlink="http://www.w3.org/1999/xlink" x="0px" y="0px"
	 viewBox="0 0 200 200" style="enable-background:new 0 0 200 200;" xml:space="preserve">
<style type="text/css">
	.st0{fill:none;}
	.st1{fill:#FFFFFF;}
	.st2{fill:#333333;}
	.st3{fill:#E6E6E6;}
</style>
<path class="st0" d="z"/>
<g>
	<circle class="st1" cx="50.6" cy="114.4" r="14.6"/>
	<path class="st2" d="M50.6,102.6c6.4,0,11.6,5.2,11.6,11.6S57,126,50.6,126S39,120.8,39,114.4S44.2,102.6,50.6,102.6 M50.6,96.6
		c-9.8,0-17.6,7.8-17.6,17.6s7.8,17.6,17.6,17.6s17.6-7.8,17.6-17.6S60.2,96.6,50.6,96.6z"/>
</g>
<g>
	<circle class="st3" cx="50.6" cy="114.4" r="8"/>
</g>
<g>
	<circle class="st1" cx="143.8" cy="114.4" r="14.6"/>
	<path class="st2" d="M143.8,102.6c6.4,0,11.6,5.2,11.6,11.6s-5.2,11.8-11.6,11.8s-11.6-5.2-11.6-11.6S137.4,102.6,143.8,102.6
		 M143.8,96.6c-9.8,0-17.6,7.8-17.6,17.6s7.8,17.6,17.6,17.6s17.6-7.8,17.6-17.6S153.6,96.6,143.8,96.6z"/>
</g>
<g>
	<circle class="st3" cx="143.8" cy="114.4" r="8"/>
</g>
<path class="st0" d="z"/>
</svg>
